<?xml version="1.0" standalone="no"?><!DOCTYPE svg PUBLIC "-//W3C//DTD SVG 1.1//EN" "http://www.w3.org/Graphics/SVG/1.1/DTD/svg11.dtd"><svg class="icon" width="48px" height="48.00px" viewBox="0 0 1024 1024" version="1.1" xmlns="http://www.w3.org/2000/svg"><path fill="#d81e06" d="M373.546667 542.549333a107.861333 107.861333 0 0 1 107.861333 107.861334v98.645333a107.861333 107.861333 0 0 1-107.861333 107.861333h-98.56a107.861333 107.861333 0 0 1-107.904-107.861333v-98.645333a107.861333 107.861333 0 0 1 107.861333-107.861334z m375.466666 0a107.861333 107.861333 0 0 1 107.904 107.861334v98.645333a107.861333 107.861333 0 0 1-107.861333 107.861333h-98.602667a107.861333 107.861333 0 0 1-107.861333-107.861333v-98.645333a107.861333 107.861333 0 0 1 107.861333-107.861334z m-375.466666 64h-98.56c-24.234667 0-43.904 19.626667-43.904 43.861334v98.645333c0 24.234667 19.626667 43.861333 43.861333 43.861333h98.602667c24.192 0 43.861333-19.626667 43.861333-43.861333v-98.645333c0-24.192-19.626667-43.861333-43.861333-43.861334z m375.466666 0h-98.56c-24.234667 0-43.861333 19.626667-43.861333 43.861334v98.645333c0 24.234667 19.626667 43.861333 43.861333 43.861333h98.56c24.234667 0 43.904-19.626667 43.904-43.861333v-98.645333c0-24.192-19.669333-43.861333-43.861333-43.861334z m0-439.466666a107.861333 107.861333 0 0 1 107.904 107.904v98.56a107.861333 107.861333 0 0 1-107.861333 107.904h-98.602667a107.861333 107.861333 0 0 1-107.861333-107.861334V274.986667a107.861333 107.861333 0 0 1 107.861333-107.861334z m-375.466666 0a107.861333 107.861333 0 0 1 107.861333 107.904v98.56a107.861333 107.861333 0 0 1-107.861333 107.904h-98.56a107.861333 107.861333 0 0 1-107.904-107.861334V274.986667a107.861333 107.861333 0 0 1 107.861333-107.861334z m375.466666 64h-98.56c-24.234667 0-43.861333 19.669333-43.861333 43.904v98.56c0 24.234667 19.626667 43.904 43.861333 43.904h98.56c24.234667 0 43.904-19.669333 43.904-43.861334V274.986667c0-24.192-19.669333-43.861333-43.861333-43.861334z m-375.466666 0h-98.56c-24.234667 0-43.904 19.669333-43.904 43.904v98.56c0 24.234667 19.626667 43.904 43.861333 43.904h98.602667c24.192 0 43.861333-19.669333 43.861333-43.861334V274.986667c0-24.192-19.626667-43.861333-43.861333-43.861334z"  /></svg>