<?xml version="1.0" standalone="no"?><!DOCTYPE svg PUBLIC "-//W3C//DTD SVG 1.1//EN" "http://www.w3.org/Graphics/SVG/1.1/DTD/svg11.dtd"><svg class="icon" width="48px" height="48.00px" viewBox="0 0 1024 1024" version="1.1" xmlns="http://www.w3.org/2000/svg"><path fill="#d81e06" d="M436.906667 562.688a71.68 71.68 0 0 1 54.314666 58.282667c11.904 72.106667 12.373333 139.776 0.426667 202.496a71.338667 71.338667 0 0 1-46.293333 54.186666c-71.936 24.874667-143.914667 24.448-215.893334-1.28a72.362667 72.362667 0 0 1-45.098666-48.896c-18.944-67.84-17.621333-138.368 0.170666-211.072a72.106667 72.106667 0 0 1 53.248-52.821333 429.354667 429.354667 0 0 1 199.168-0.853333z m352.981333 0a71.68 71.68 0 0 1 54.272 58.282667c11.904 72.106667 12.373333 139.776 0.426667 202.496a71.338667 71.338667 0 0 1-46.250667 54.186666c-71.978667 24.874667-143.957333 24.448-215.893333-1.28a72.362667 72.362667 0 0 1-45.141334-48.896c-18.944-67.84-17.621333-138.368 0.170667-211.072a72.106667 72.106667 0 0 1 53.248-52.821333 429.354667 429.354667 0 0 1 199.168-0.853333z m-352.938667-380.757333a71.68 71.68 0 0 1 54.272 58.282666c11.904 72.106667 12.373333 139.776 0.426667 202.496a71.338667 71.338667 0 0 1-46.293333 54.186667c-71.936 24.874667-143.914667 24.448-215.893334-1.28a72.362667 72.362667 0 0 1-45.098666-48.896c-18.944-67.84-17.621333-138.368 0.170666-211.072a72.106667 72.106667 0 0 1 53.248-52.821333 429.354667 429.354667 0 0 1 199.168-0.853334z m352.938667 0a71.68 71.68 0 0 1 54.272 58.282666c11.904 72.106667 12.373333 139.776 0.426667 202.496a71.338667 71.338667 0 0 1-46.250667 54.186667c-71.978667 24.874667-143.957333 24.448-215.893333-1.28a72.362667 72.362667 0 0 1-45.141334-48.896c-18.944-67.84-17.621333-138.368 0.170667-211.072a72.106667 72.106667 0 0 1 53.248-52.821333 429.354667 429.354667 0 0 1 199.168-0.853334z"  /></svg>